<svg width="125" height="24" viewBox="0 0 125 24" fill="none" xmlns="http://www.w3.org/2000/svg">
<path d="M0.960022 23H9.85602V22.552C6.65602 22.136 5.69602 20.792 5.69602 17.56V2.87205H5.88802L14.208 23.032H15.36L22.816 2.87205H22.976V20.728C22.976 22.008 22.176 22.456 19.904 22.552V23H30.944V22.552C28.256 22.456 27.616 21.944 27.616 20.728V2.96804C27.616 1.75204 28.256 1.20804 30.944 1.11205V0.696045H22.784L16.736 17.144H16.576L9.98402 0.696045H0.960022V1.11205C3.71202 1.17604 4.89602 2.64804 4.89602 4.56804V17.56C4.89602 20.792 3.96802 22.168 0.960022 22.552V23Z" fill="white"/>
<path d="M58.6506 23.352H60.1866V6.10405C60.1866 2.93604 61.0506 1.56005 64.0586 1.11205V0.696045H54.9706V1.11205C58.2026 1.49604 59.3866 2.93604 59.3866 6.10405V16.728H59.3546L47.0346 0.696045H39.4826V1.11205C42.2346 1.24005 43.4186 2.87205 43.4186 4.82405V17.56C43.4186 20.792 42.4906 22.168 39.4826 22.552V23H48.5066V22.552C45.2426 22.2 44.2186 20.792 44.2186 17.56V4.72804H44.2506L58.6506 23.352Z" fill="white"/>
<path d="M75.4222 23H87.5182V22.552C84.6702 22.488 83.8062 21.944 83.8062 20.728V1.27205H84.5742C87.0382 1.27205 88.9582 3.73604 91.1982 8.08805L91.6782 8.02404L91.5182 0.696045H71.3902L71.1982 8.02404L71.6782 8.08805C73.9502 3.64005 75.9022 1.27205 78.3342 1.27205H79.1342V20.728C79.1342 21.944 78.2382 22.488 75.4222 22.552V23Z" fill="white"/>
<path d="M118.842 23.352H120.378V6.10405C120.378 2.93604 121.242 1.56005 124.25 1.11205V0.696045H115.162V1.11205C118.394 1.49604 119.578 2.93604 119.578 6.10405V16.728H119.546L107.226 0.696045H99.6741V1.11205C102.426 1.24005 103.61 2.87205 103.61 4.82405V17.56C103.61 20.792 102.682 22.168 99.6741 22.552V23H108.698V22.552C105.434 22.2 104.41 20.792 104.41 17.56V4.72804H104.442L118.842 23.352Z" fill="white"/>
</svg>
